<svg xmlns="http://www.w3.org/2000/svg" width="1100" height="180" viewBox="0 0 1100 180" role="img" aria-label="Currently working on FleetPulse">
  <defs>
    <linearGradient id="bg" x1="0" y1="0" x2="1" y2="1">
      <stop offset="0%" stop-color="#07111f"/>
      <stop offset="55%" stop-color="#0b1f33"/>
      <stop offset="100%" stop-color="#0b2b3a"/>
    </linearGradient>
    <linearGradient id="accent" x1="0" y1="0" x2="0" y2="1">
      <stop offset="0%" stop-color="#06b6d4"/>
      <stop offset="100%" stop-color="#3b82f6"/>
    </linearGradient>
  </defs>

  <rect width="1100" height="180" rx="22" fill="url(#bg)"/>
  <rect x="1" y="1" width="1098" height="178" rx="21" fill="none" stroke="#28445c"/>
  <rect x="5" y="24" width="6" height="132" rx="3" fill="url(#accent)"/>

  <circle cx="62" cy="62" r="9" fill="#22c55e">
    <animate attributeName="opacity" values="0.35;1;0.35" dur="1.8s" repeatCount="indefinite"/>
  </circle>
  <text x="84" y="69" fill="#7dd3fc" font-family="Segoe UI,Arial,sans-serif" font-size="18" font-weight="700">CURRENTLY WORKING ON</text>

  <text x="40" y="115" fill="#ffffff" font-family="Segoe UI,Arial,sans-serif" font-size="30" font-weight="700">FleetPulse</text>
  <text x="40" y="145" fill="#cbd5e1" font-family="Segoe UI,Arial,sans-serif" font-size="17">Real-time fleet monitoring · telemetry · event-driven processing · observability</text>

  <g font-family="Segoe UI,Arial,sans-serif" font-size="14" font-weight="600">
    <rect x="690" y="46" width="108" height="32" rx="16" fill="#17213d"/>
    <text x="710" y="67" fill="#c4b5fd">ASP.NET Core</text>

    <rect x="810" y="46" width="82" height="32" rx="16" fill="#2a1831"/>
    <text x="831" y="67" fill="#f0abfc">Angular</text>

    <rect x="904" y="46" width="76" height="32" rx="16" fill="#0d3040"/>
    <text x="925" y="67" fill="#67e8f9">MQTT</text>

    <rect x="690" y="90" width="124" height="32" rx="16" fill="#10273a"/>
    <text x="709" y="111" fill="#93c5fd">PostgreSQL</text>

    <rect x="826" y="90" width="104" height="32" rx="16" fill="#10273a"/>
    <text x="846" y="111" fill="#93c5fd">SignalR</text>

    <rect x="942" y="90" width="110" height="32" rx="16" fill="#132c25"/>
    <text x="962" y="111" fill="#86efac">OpenTelemetry</text>
  </g>

  <path d="M590 46 C630 24 660 62 690 46" fill="none" stroke="#22d3ee" stroke-width="2" stroke-dasharray="6 6" opacity="0.7">
    <animate attributeName="stroke-dashoffset" values="0;-24" dur="2.6s" repeatCount="indefinite"/>
  </path>
</svg>